<svg
   xmlns:dc="http://purl.org/dc/elements/1.1/"
   xmlns:cc="http://creativecommons.org/ns#"
   xmlns:rdf="http://www.w3.org/1999/02/22-rdf-syntax-ns#"
   xmlns:svg="http://www.w3.org/2000/svg"
   xmlns="http://www.w3.org/2000/svg"
   xmlns:sodipodi="http://sodipodi.sourceforge.net/DTD/sodipodi-0.dtd"
   xmlns:inkscape="http://www.inkscape.org/namespaces/inkscape"
   sodipodi:docname="Bohol.svg"
   inkscape:version="1.0 (4035a4fb49, 2020-05-01)"
   id="svg8"
   version="1.1"
   viewBox="0 0 210 297"
   height="297mm"
   width="210mm">
  <defs
     id="defs2" />
  <sodipodi:namedview
     inkscape:snap-bbox="true"
     inkscape:snap-page="true"
     inkscape:window-maximized="0"
     inkscape:window-y="0"
     inkscape:window-x="754"
     inkscape:window-height="1378"
     inkscape:window-width="1375"
     showgrid="false"
     inkscape:document-rotation="0"
     inkscape:current-layer="layer1"
     inkscape:document-units="mm"
     inkscape:cy="550.08484"
     inkscape:cx="163.87823"
     inkscape:zoom="5.6"
     inkscape:pageshadow="2"
     inkscape:pageopacity="0.0"
     borderopacity="1.0"
     bordercolor="#666666"
     pagecolor="#ffffff"
     id="base" />
  <metadata
     id="metadata5">
    <rdf:RDF>
      <cc:Work
         rdf:about="">
        <dc:format>image/svg+xml</dc:format>
        <dc:type
           rdf:resource="http://purl.org/dc/dcmitype/StillImage" />
        <dc:title></dc:title>
      </cc:Work>
    </rdf:RDF>
  </metadata>
  <g
     id="layer1"
     inkscape:groupmode="layer"
     inkscape:label="Layer 1">
     <g id="Anda">
    <path
       transform="scale(0.26458333)"
       id="Anda"
       d="m 685.65356,700.6132 c 0,-0.38826 3.45457,-13.10275 7.67683,-28.25441 l 7.67683,-27.54848 7.85889,-5.8293 7.85888,-5.8293 2.48724,1.67819 c 2.90173,1.95787 8.22979,2.27999 10.41195,0.62949 1.71858,-1.29987 4.60081,-1.4122 4.60081,-0.17932 0,0.50316 1.02809,1.30289 2.28466,1.77719 l 2.28465,0.86237 -2.01125,2.09929 c -1.96704,2.05315 -1.99183,2.18024 -1.12797,5.78125 0.48581,2.02507 0.71575,5.34315 0.51097,7.37351 -0.21132,2.0952 0.0796,5.67469 0.67284,8.27753 0.68893,3.02285 0.88485,6.08298 0.57483,8.97798 -0.41094,3.83729 -0.82923,4.76918 -3.31182,7.37831 -2.06739,2.17278 -3.40871,2.98631 -4.92368,2.98631 -2.99687,0 -7.05347,5.58328 -7.07838,9.7423 -0.029,4.83764 -1.31813,5.67912 -10.23846,6.68297 -4.24641,0.47787 -11.88034,1.59588 -16.96428,2.48445 -5.4758,0.95707 -9.24354,1.32785 -9.24354,0.90967 z"
       style="fill:#d7eef4;fill-opacity:1;stroke:none;stroke-width:0.715411;stroke-linejoin:round" />
       </g>
  </g>
</svg>