<?xml version="1.0" encoding="UTF-8" standalone="no"?>
<svg
   xmlns:dc="http://purl.org/dc/elements/1.1/"
   xmlns:cc="http://creativecommons.org/ns#"
   xmlns:rdf="http://www.w3.org/1999/02/22-rdf-syntax-ns#"
   xmlns:svg="http://www.w3.org/2000/svg"
   xmlns="http://www.w3.org/2000/svg"
   xmlns:sodipodi="http://sodipodi.sourceforge.net/DTD/sodipodi-0.dtd"
   xmlns:inkscape="http://www.inkscape.org/namespaces/inkscape"
   sodipodi:docname="Bohol.svg"
   inkscape:version="1.0 (4035a4fb49, 2020-05-01)"
   id="svg8"
   version="1.1"
   viewBox="0 0 210 297"
   height="297mm"
   width="210mm">
  <defs
     id="defs2" />
  <sodipodi:namedview
     inkscape:snap-bbox="true"
     inkscape:snap-page="true"
     inkscape:window-maximized="0"
     inkscape:window-y="0"
     inkscape:window-x="754"
     inkscape:window-height="1378"
     inkscape:window-width="1375"
     showgrid="false"
     inkscape:document-rotation="0"
     inkscape:current-layer="layer1"
     inkscape:document-units="mm"
     inkscape:cy="550.08484"
     inkscape:cx="163.87823"
     inkscape:zoom="5.6"
     inkscape:pageshadow="2"
     inkscape:pageopacity="0.0"
     borderopacity="1.0"
     bordercolor="#666666"
     pagecolor="#ffffff"
     id="base" />
  <metadata
     id="metadata5">
    <rdf:RDF>
      <cc:Work
         rdf:about="">
        <dc:format>image/svg+xml</dc:format>
        <dc:type
           rdf:resource="http://purl.org/dc/dcmitype/StillImage" />
        <dc:title></dc:title>
      </cc:Work>
    </rdf:RDF>
  </metadata>
  <g
     id="layer1"
     inkscape:groupmode="layer"
     inkscape:label="Layer 1">
    <path
       id="path38"
       d="m 116.03869,95.249999 0.75595,17.197921 0.37798,4.44121 -2.55134,11.90626 -12.6622,-1.79539 -0.86438,-1.61719 1.06908,-1.80406 -6.280837,-4.71063 -5.91334,-1.40317 h -0.601355 l -0.902036,-1.40316"
       style="fill:none;stroke:#000000;stroke-width:0.264583px;stroke-linecap:butt;stroke-linejoin:miter;stroke-opacity:1" />
    <path
       id="path40"
       d="m 101.95908,127 -0.86438,6.06681 0.26727,0.60136 v 0.43431 l 2.50565,-0.0334 0.7684,0.43432 0.13363,0.93544 -0.50113,0.83522 v 0.70158 l 0.96886,0.80181 0.0668,3.24064"
       style="fill:none;stroke:#000000;stroke-width:0.264583px;stroke-linecap:butt;stroke-linejoin:miter;stroke-opacity:1" />
    <path
       id="path42"
       d="m 80.508926,131.15774 6.85082,3.96875 1.228423,2.50409 16.716011,3.38751 2.13555,1.62067 2.97656,3.30729 5.90588,2.26786 7.1343,4.91369"
       style="fill:none;stroke:#000000;stroke-width:0.264583px;stroke-linecap:butt;stroke-linejoin:miter;stroke-opacity:1" />
    <path
       id="path44"
       d="m 116.70015,119.58222 6.94531,2.59858 30.28534,0.56697"
       style="fill:none;stroke:#000000;stroke-width:0.264583px;stroke-linecap:butt;stroke-linejoin:miter;stroke-opacity:1" />
    <path
       id="path46"
       d="m 152.89137,105.92783 -0.18899,1.18117 0.61421,0.37798 0.47247,1.74814 0.42522,0.56696 1.22843,0.18899 0.0472,0.56696 -0.99218,2.17337 0.7087,1.65364 0.85045,0.28349 -0.66146,0.66145 v 1.32292 l 1.03943,0.56697 -2.50409,5.5279 -1.13393,10.2526 -3.30729,4.11049 -0.0945,3.02381 -4.53572,3.26005 5.52791,12.09523 8.83519,6.66183"
       style="fill:none;stroke:#000000;stroke-width:0.264583px;stroke-linecap:butt;stroke-linejoin:miter;stroke-opacity:1" />
    <path
       id="path48"
       d="m 184.78311,134.32329 -5.19717,0.14174 -19.74926,10.91406 -14.07961,0.0473 -11.00856,-1.27567 -3.2128,-7.74851 -1.6064,-0.99219 h -2.55134 l -1.60639,1.18117 -2.97657,-2.12611 -1.55915,-13.22917"
       style="fill:none;stroke:#000000;stroke-width:0.264583px;stroke-linecap:butt;stroke-linejoin:miter;stroke-opacity:1" />
    <path
       id="path50"
       d="m 142.59152,102.99851 -0.0945,4.016 0.42522,0.75595 -0.14174,0.70871 0.56697,2.26785 -0.37798,0.8032 1.55915,0.37798 1.51191,-2.97656 1.27567,0.0945 0.28348,1.55915 h 2.69308 l 1.03944,0.8032 -0.23624,-1.41741 0.56697,-0.47247 -0.37798,-1.22842 2.03162,-0.8032"
       style="fill:none;stroke:#000000;stroke-width:0.264583px;stroke-linecap:butt;stroke-linejoin:miter;stroke-opacity:1" />
    <path
       id="path52"
       d="m 119.48772,120.43266 17.76488,-10.86681 5.66964,-0.14174"
       style="fill:none;stroke:#000000;stroke-width:0.264583px;stroke-linecap:butt;stroke-linejoin:miter;stroke-opacity:1" />
    <path
       id="path54"
       d="m 116.32217,148.21391 -0.0472,-1.98437 6.09486,0.18899 1.18118,-2.03163 4.58296,0.0472 -0.18899,-3.44903 4.53571,-2.07887"
       style="fill:none;stroke:#000000;stroke-width:0.264583px;stroke-linecap:butt;stroke-linejoin:miter;stroke-opacity:1" />
    <path
       id="path56"
       d="m 143.01674,145.14286 -1.32292,8.59895 -3.1183,3.63802 -15.02455,3.11831"
       style="fill:none;stroke:#000000;stroke-width:0.264583px;stroke-linecap:butt;stroke-linejoin:miter;stroke-opacity:1" />
    <path
       id="path58"
       d="m 123.45647,153.1276 0.0945,7.37054 -2.45685,12.56771 0.75595,2.07887 -2.74032,6.14211"
       style="fill:none;stroke:#000000;stroke-width:0.264583px;stroke-linecap:butt;stroke-linejoin:miter;stroke-opacity:1" />
    <path
       id="path60"
       d="m 71.561414,136.17382 0.334087,4.47677 2.53906,2.73951 0.868628,2.53906 -3.741775,5.47903 h -0.334087 l -0.200451,0.73499 -1.469982,1.06908 0.868627,2.67269 -0.400905,0.93544 0.734992,0.60136 -0.467723,0.80181 -2.672696,0.93544 0.06682,1.20272 -0.801809,0.66817 0.133636,1.20271 -0.467722,0.66818 -0.06682,1.13589 -0.801809,0.46772 -0.53454,2.07134 v 2.47225 l -1.469983,1.40316 0.06682,1.40316 -0.868624,0.86863 -3.34087,-1.73725 -2.138156,-2.80633 -3.407688,-2.13816 -0.400902,-2.07134 0.601355,-0.60135 -1.403164,-1.73726"
       style="fill:none;stroke:#000000;stroke-width:0.264583px;stroke-linecap:butt;stroke-linejoin:miter;stroke-opacity:1" />
    <path
       id="path62"
       d="m 88.588169,137.63058 -4.197816,4.55681 1.870885,14.56619"
       style="fill:none;stroke:#000000;stroke-width:0.264583px;stroke-linecap:butt;stroke-linejoin:miter;stroke-opacity:1" />
    <path
       id="path64"
       d="m 81.851293,177.53378 3.340867,17.63979 5.412208,3.60814"
       style="fill:none;stroke:#000000;stroke-width:0.264583px;stroke-linecap:butt;stroke-linejoin:miter;stroke-opacity:1" />
    <path
       id="path66"
       d="m 71.026876,189.69455 3.474503,6.41446 4.34313,0.33409 6.347651,-1.26953"
       style="fill:none;stroke:#000000;stroke-width:0.264583px;stroke-linecap:butt;stroke-linejoin:miter;stroke-opacity:1" />
    <path
       id="path68"
       d="m 56.193417,181.0751 3.073601,5.07812 3.80859,3.34087 7.951268,0.20046 10.824417,-12.16077"
       style="fill:none;stroke:#000000;stroke-width:0.264583px;stroke-linecap:butt;stroke-linejoin:miter;stroke-opacity:1" />
    <path
       id="path70"
       d="m 42.896758,191.69907 0.53454,0.8018 7.817633,0.13364 5.946746,-3.94223 2.071341,-2.53906"
       style="fill:none;stroke:#000000;stroke-width:0.264583px;stroke-linecap:butt;stroke-linejoin:miter;stroke-opacity:1" />
    <path
       id="path72"
       d="m 47.573975,207.00025 0.267271,-10.89124 2.204971,-2.20497 -0.400902,-1.40317"
       style="fill:none;stroke:#000000;stroke-width:0.264583px;stroke-linecap:butt;stroke-linejoin:miter;stroke-opacity:1" />
    <path
       id="path74"
       d="m 47.841246,196.10901 6.214015,2.87315 6.949008,0.20045 7.082642,1.67044 6.414468,-4.74404"
       style="fill:none;stroke:#000000;stroke-width:0.264583px;stroke-linecap:butt;stroke-linejoin:miter;stroke-opacity:1" />
    <path
       id="path76"
       d="m 63.075608,189.49409 -2.071339,9.68852 -1.469982,10.69078"
       style="fill:none;stroke:#000000;stroke-width:0.264583px;stroke-linecap:butt;stroke-linejoin:miter;stroke-opacity:1" />
    <path
       id="path78"
       d="m 68.086911,200.85305 -0.801809,11.22532"
       style="fill:none;stroke:#000000;stroke-width:0.264583px;stroke-linecap:butt;stroke-linejoin:miter;stroke-opacity:1" />
    <path
       id="path80"
       d="m 172.5893,138.31198 0.8018,4.00904 -4.47676,16.83798"
       style="fill:none;stroke:#000000;stroke-width:0.264583px;stroke-linecap:butt;stroke-linejoin:miter;stroke-opacity:1" />
    <path
       id="path82"
       d="m 178.33559,159.82717 -9.42125,-0.66817 -4.20949,-0.20045 -4.07587,-1.00226 -1.40656,4.19549 -2.46884,1.88489 15.90253,6.34765 12.62849,0.0668 4.34313,-3.20723"
       style="fill:none;stroke:#000000;stroke-width:0.264583px;stroke-linecap:butt;stroke-linejoin:miter;stroke-opacity:1" />
    <path
       id="path84"
       d="m 185.2846,170.45112 -4.27632,15.36802"
       style="fill:none;stroke:#000000;stroke-width:0.264583px;stroke-linecap:butt;stroke-linejoin:miter;stroke-opacity:1" />
    <path
       id="path86"
       d="m 156.75358,164.03667 -7.2831,7.75082 9.28762,8.21853 0.20045,0.93545 0.73499,0.26727 1.1359,1.60361 -0.33409,0.66818 0.73499,0.33408 -0.0668,0.735 1.00226,0.66817 -0.4009,1.33635"
       style="fill:none;stroke:#000000;stroke-width:0.264583px;stroke-linecap:butt;stroke-linejoin:miter;stroke-opacity:1" />
    <path
       id="path88"
       d="m 150.60638,172.9902 -6.21402,8.28535 1.26953,2.07134 0.46772,2.27179 1.00226,1.20272 0.26727,1.26953 0.86863,0.80181 -0.20045,0.80181 0.0668,0.66817 0.93545,0.66817 h 0.66817 l 0.13364,0.53454 -0.0668,0.93544 0.33408,1.26954 1.33635,0.26727 0.60136,0.33408 h 1.26953 l 1.33635,1.06908"
       style="fill:none;stroke:#000000;stroke-width:0.264583px;stroke-linecap:butt;stroke-linejoin:miter;stroke-opacity:1" />
    <path
       id="path90"
       d="m 134.79576,158.27753 0.0236,4.27585 0.63783,-0.14174 0.4961,0.0236 -0.0709,0.30711 -0.49609,0.42522 0.42522,0.51972 1.01582,0.33073 0.37797,0.4016 0.35435,-0.68508 0.44885,0.0472 0.0709,0.73233 0.4016,0.51972 0.44885,0.0945 0.37797,0.56697 -0.11811,0.37797 0.35435,0.75596 -1.01581,0.0236 -0.0236,0.30711 0.4016,0.23623 -0.18899,0.54334 0.28348,0.23624 0.47248,0.0945 -0.0236,0.47247 -0.51972,0.61422 0.23624,0.44884 v 0.51971 l -0.25986,0.42522 1.01581,0.28348 0.4016,0.35436 0.96856,-0.21261 0.66146,0.35435 1.58278,-0.23624 0.42522,0.11812 0.59059,-0.0236 0.42522,0.18899 1.29929,-0.0473 0.25986,0.28348 2.93384,-0.0263"
       style="fill:none;stroke:#000000;stroke-width:0.264583px;stroke-linecap:butt;stroke-linejoin:miter;stroke-opacity:1" />
    <path
       id="path92"
       d="m 109.04597,181.20874 10.06378,0.0781 1.49562,-0.0781 4.2095,15.23436 -4.74404,16.16981"
       style="fill:none;stroke:#000000;stroke-width:0.264583px;stroke-linecap:butt;stroke-linejoin:miter;stroke-opacity:1" />
    <path
       id="path94"
       d="m 120.60537,181.20874 3.0736,-1.60362 10.08943,3.4745 2.47224,13.36348 5.41221,10.62397"
       style="fill:none;stroke:#000000;stroke-width:0.264583px;stroke-linecap:butt;stroke-linejoin:miter;stroke-opacity:1" />
    <path
       id="path96"
       d="m 133.7684,183.07962 11.04373,-0.98959"
       style="fill:none;stroke:#000000;stroke-width:0.264583px;stroke-linecap:butt;stroke-linejoin:miter;stroke-opacity:1" />
    <path
       id="path98"
       d="m 91.895461,159.74219 -5.634223,-2.98861 -5.232593,-6.17732 -11.811757,0.14174 -4.819195,1.32292 -5.197173,4.25223 -2.220611,-1.93712 -2.173361,2.3151 1.889879,2.64583 -3.910695,2.31428 -9.082236,11.62359 -15.355281,10.77233"
       style="fill:none;stroke:#000000;stroke-width:0.264583px;stroke-linecap:butt;stroke-linejoin:miter;stroke-opacity:1" />
    <path
       id="path100"
       d="M 61.846353,154.11979 53.200149,142.875"
       style="fill:none;stroke:#000000;stroke-width:0.264583px;stroke-linecap:butt;stroke-linejoin:miter;stroke-opacity:1" />
    <path
       id="path102"
       d="M 50.223586,164.70312 40.254465,153.83631"
       style="fill:none;stroke:#000000;stroke-width:0.264583px;stroke-linecap:butt;stroke-linejoin:miter;stroke-opacity:1" />
    <path
       id="path104"
       d="m 65.146943,169.04798 9.361612,2.17523 0.992187,-2.3151 9.118677,2.36235"
       style="fill:none;stroke:#000000;stroke-width:0.264583px;stroke-linecap:butt;stroke-linejoin:miter;stroke-opacity:1" />
    <path
       id="path106"
       d="m 43.703496,173.25483 7.323288,5.95313 -0.283482,0.7087 0.661458,0.51972 0.472472,1.27567 -0.04725,0.56697 0.661459,0.37797"
       style="fill:none;stroke:#000000;stroke-width:0.264583px;stroke-linecap:butt;stroke-linejoin:miter;stroke-opacity:1" />
    <path
       id="path108"
       d="m 68.086911,200.85305 1.838682,1.60044 0.944941,1.74815 0.472472,2.55133 11.481025,0.42523 7.780337,-8.39649 1.243846,-0.58045 7.654017,14.41034"
       style="fill:none;stroke:#000000;stroke-width:0.264583px;stroke-linecap:butt;stroke-linejoin:miter;stroke-opacity:1" />
    <path
       id="path110"
       d="m 82.824031,207.1782 1.228423,7.32329"
       style="fill:none;stroke:#000000;stroke-width:0.264583px;stroke-linecap:butt;stroke-linejoin:miter;stroke-opacity:1" />
    <path
       id="path112"
       d="m 81.851293,177.53378 5.555699,-0.12121 12.331475,0.23624 4.204983,0.89769 5.10252,2.66224 -2.22045,0.88129 -3.35454,2.97656 -10.488839,12.61496 -1.133927,0.51971"
       style="fill:none;stroke:#000000;stroke-width:0.264583px;stroke-linecap:butt;stroke-linejoin:miter;stroke-opacity:1" />
    <path
       id="path114"
       d="m 109.04597,181.20874 2.40976,8.39356 -0.47247,8.97694 -1.70089,2.07887 v 0.99219 l -0.51972,0.33072 0.33073,0.56697 -0.70871,2.12611 -0.7087,0.99219 0.61421,1.27567 0.61421,0.23624 0.0945,0.33073 -0.33073,0.7087 0.66146,0.47247 0.14174,0.37798 v 1.08668"
       style="fill:none;stroke:#000000;stroke-width:0.264583px;stroke-linecap:butt;stroke-linejoin:miter;stroke-opacity:1" />
    <path
       id="path116"
       d="m 105.30418,141.01809 -7.83357,14.84984 -0.803201,2.59859 5.480651,10.06361 -0.99218,1.41741 3.1183,1.7009 1.37017,2.69308 4.15773,2.74032 -0.75611,4.1269"
       style="fill:none;stroke:#000000;stroke-width:0.264583px;stroke-linecap:butt;stroke-linejoin:miter;stroke-opacity:1" />
    <path
       id="path118"
       d="m 116.60565,112.40067 -17.197912,-4.7247 -1.842635,-0.14175"
       style="fill:none;stroke:#000000;stroke-width:0.264583px;stroke-linecap:butt;stroke-linejoin:miter;stroke-opacity:1" />
    <path
       id="path120"
       d="m 62.875157,172.72293 -0.320099,1.52409 -0.850445,1.22843 -1.417412,-0.37798 -0.566963,0.47247 0.47247,2.17336 -1.464657,0.89769 -0.188989,1.08669 -0.897694,0.75595 -0.09449,0.61421 -1.353457,-0.0228"
       style="fill:none;stroke:#000000;stroke-width:0.264583px;stroke-linecap:butt;stroke-linejoin:miter;stroke-opacity:1" />
    <path
       id="path122"
       d="m 56.696427,182.04278 -1.511904,0.18899 -0.566965,0.85045 h -0.708705 l -0.425222,-1.08669 -0.99219,0.66146 -1.748139,0.0945 -0.661459,0.8032 0.614212,0.85044 -1.41741,0.94494 -1.039434,-0.42522 -1.228423,0.61421 h -0.850445 l -0.377979,-0.28348 -0.377975,0.28348 -0.14174,1.27567 0.236235,0.56697 -0.330729,1.18117 -0.519718,0.0472 -0.519718,-0.8977 -1.133928,0.66146"
       style="fill:none;stroke:#000000;stroke-width:0.264583px;stroke-linecap:butt;stroke-linejoin:miter;stroke-opacity:1" />
    <path
       id="path124"
       d="m 97.47061,155.86793 -1.039434,0.33073 0.09449,0.70871 -0.992188,0.80319 -0.897694,-0.61421 0.330729,-0.61421 -0.755951,-0.85044 -0.944941,0.0945 -0.519716,0.61421 -0.236236,1.27567 -0.755951,0.14174 -0.04725,0.37798 0.330729,0.33073 -0.141739,1.27567 0.377975,1.79538 -0.09449,0.47247 -0.708705,-0.28348 -0.472472,0.14174 -0.188986,0.37798 -0.708705,0.28348 0.04725,0.37798 0.47247,0.66146 -0.708705,1.13392 -0.755952,0.0472 -1.511906,1.32292 0.283483,1.18117 H 87.12351 l -0.04725,-0.94494 h -0.708705 l 0.04725,0.99219 -1.039434,1.55915 v 1.37017 l -0.755952,1.03943 0.803198,1.51191 -0.377976,2.12611 -0.755951,0.8032 -0.472472,-0.0472 -0.803198,-1.18117 h -0.661459 l -0.566965,0.56696 0.236236,0.56697 0.850448,0.33072 0.755951,0.70871 v 0.7087"
       style="fill:none;stroke:#000000;stroke-width:0.264583px;stroke-linecap:butt;stroke-linejoin:miter;stroke-opacity:1" />
    <path
       id="path126"
       d="m 180.80783,103.13263 h 0.90204 l 0.20045,0.53454 1.1693,0.26727 0.40091,1.00226 0.96885,-0.63477 0.10023,-0.93544 0.66817,0.4009 0.30068,-1.00226 0.4009,-0.36749 -0.26727,-1.36976 0.50113,-0.63476 1.1359,0.20045 0.73499,0.33409 0.33409,1.46998 -0.0334,0.43431 0.60135,0.46772 0.76841,0.33409 0.30067,-0.7684 -0.16704,-1.5368 0.83522,-0.0334 1.10248,-0.50113 -0.16704,-1.469983 0.43431,-0.367496 1.03567,0.534541 1.20272,-1.102487 0.56794,-1.002263 3.20724,-1.403165 1.36975,0.100227 0.50114,0.601356 -0.80181,1.202713 -0.63477,0.768401 -2.73951,1.135896 -0.0334,1.26953 -0.66817,2.37202 -1.87089,1.46998 0.26727,0.13363 1.97111,-0.96885 h 1.03567 l 0.13364,2.50565 0.56794,0.83522 -0.46772,0.70158 0.30068,1.70385 -1.43657,0.70158 -0.3675,-2.77292 -0.46772,0.30068 0.0334,1.36975 h -0.83522 v 0.46772 l 0.70158,0.13364 v 1.00226 h -1.10249 l -1.33634,-2.77292 -1.03567,0.10022 v 0.56795 l -0.7684,0.3675 -1.57021,-0.43432 -1.73725,0.60136 -1.57021,2.07134 1.1693,0.56795 0.7684,0.90203 0.46773,0.83522 -0.33409,0.26727 -1.70384,-0.40091 -0.50113,0.66818 0.60135,0.93544 0.0668,1.46998 -0.93544,0.43432 -1.60362,0.33408 -1.36976,-1.20271 -1.70384,-3.60814 0.43431,-2.77292 0.50113,0.0668 0.30068,0.80181 0.60136,0.16704 0.33408,-0.50113 -0.56794,-0.80181 -0.13364,-2.00452 0.40091,-0.16704 0.30067,0.26726 0.10023,0.40091 0.60136,-0.0334 -0.0668,-1.43657 -0.50113,-0.26727 -0.56795,0.4009 -0.66817,0.23386 -0.86863,-0.56794 -0.30068,0.0668 0.43432,1.16931 -0.40091,0.4009 -1.06908,-1.67043 0.43432,-2.37202 z"
       style="fill:none;stroke:#000000;stroke-width:0.264583px;stroke-linecap:butt;stroke-linejoin:miter;stroke-opacity:1" />
    <path
       id="path128"
       d="m 175.99698,108.47802 0.93545,-0.30068 0.73499,0.60136 0.36749,1.9377 -0.60135,0.4009 -1.46999,-1.40316 z"
       style="fill:none;stroke:#000000;stroke-width:0.264583px;stroke-linecap:butt;stroke-linejoin:miter;stroke-opacity:1" />
    <path
       id="path130"
       d="m 183.51394,99.79176 1.20271,0.4009 v 1.16931 l -0.50113,1.00226 -1.40317,-1.00226 z"
       style="fill:none;stroke:#000000;stroke-width:0.264583px;stroke-linecap:butt;stroke-linejoin:miter;stroke-opacity:1" />
    <path
       id="path132"
       d="m 190.93067,96.68475 1.13589,0.100226 0.10023,1.202714 -0.7684,0.434314 -0.66818,-0.935445 z"
       style="fill:none;stroke:#000000;stroke-width:0.264583px;stroke-linecap:butt;stroke-linejoin:miter;stroke-opacity:1" />
    <path
       id="path134"
       d="m 187.35594,87.463952 1.87088,-1.102487 0.16705,0.634764 -1.5368,2.372019 -0.73499,-0.133636 -0.0668,-0.935442 z"
       style="fill:none;stroke:#000000;stroke-width:0.264583px;stroke-linecap:butt;stroke-linejoin:miter;stroke-opacity:1" />
    <path
       id="path136"
       d="m 167.2105,90.403917 0.36749,0.334087 v 1.069078 l -0.86862,0.467722 -0.7684,-0.367495 0.23386,-0.701583 z"
       style="fill:none;stroke:#000000;stroke-width:0.264583px;stroke-linecap:butt;stroke-linejoin:miter;stroke-opacity:1" />
    <path
       id="path138"
       d="m 175.19517,93.577742 0.23386,0.400905 -0.46772,0.7684 -0.46772,-0.334087 0.0334,-0.835218 z"
       style="fill:none;stroke:#000000;stroke-width:0.264583px;stroke-linecap:butt;stroke-linejoin:miter;stroke-opacity:1" />
    <path
       id="path140"
       d="m 176.39789,94.613411 0.36749,0.902036 -0.63476,0.23386 -0.46773,-0.300678 0.23386,-0.968851 z"
       style="fill:none;stroke:#000000;stroke-width:0.264583px;stroke-linecap:butt;stroke-linejoin:miter;stroke-opacity:1" />
    <path
       id="path142"
       d="m 185.18437,98.388595 0.56795,0.501129 -0.13364,0.902036 -0.90203,0.4009 -0.16704,-1.002259 z"
       style="fill:none;stroke:#000000;stroke-width:0.264583px;stroke-linecap:butt;stroke-linejoin:miter;stroke-opacity:1" />
    <path
       id="path144"
       d="m 163.03441,93.577742 0.80181,0.400905 0.10023,1.202714 -0.735,0.400902 -0.63476,-0.300678 v -1.00226 z"
       style="fill:none;stroke:#000000;stroke-width:0.264583px;stroke-linecap:butt;stroke-linejoin:miter;stroke-opacity:1" />
    <path
       id="path146"
       d="m 163.80281,96.751567 0.30068,0.634765 -0.23386,0.434313 -0.63477,-0.03341 -0.0668,-0.501129 0.23386,-0.701583 z"
       style="fill:none;stroke:#000000;stroke-width:0.264583px;stroke-linecap:butt;stroke-linejoin:miter;stroke-opacity:1" />
    <path
       id="path148"
       d="m 163.43531,74.200702 3.27406,2.338609 2.37201,0.367496 0.33409,1.102484 -1.67044,-0.06682 -2.27178,-0.701582 -1.97112,-1.436574 -0.90203,-1.302941 0.43431,-0.334086 z"
       style="fill:none;stroke:#000000;stroke-width:0.264583px;stroke-linecap:butt;stroke-linejoin:miter;stroke-opacity:1" />
    <path
       id="path150"
       d="m 172.2218,77.274303 1.00226,0.434311 -0.0334,0.668173 -0.50113,0.334089 -1.06908,-0.133635 -0.33408,-0.400905 0.0334,-0.668173 z"
       style="fill:none;stroke:#000000;stroke-width:0.264583px;stroke-linecap:butt;stroke-linejoin:miter;stroke-opacity:1" />
    <path
       id="path152"
       d="m 155.21678,76.03818 0.7684,0.601355 -0.3675,0.56795 -1.00226,-0.167045 v -0.434313 z"
       style="fill:none;stroke:#000000;stroke-width:0.264583px;stroke-linecap:butt;stroke-linejoin:miter;stroke-opacity:1" />
    <path
       id="path154"
       d="m 156.68676,77.374527 0.13363,0.7684 -0.60135,0.133636 -0.60136,-1.069078 z"
       style="fill:none;stroke:#000000;stroke-width:0.264583px;stroke-linecap:butt;stroke-linejoin:miter;stroke-opacity:1" />
    <path
       id="path156"
       d="m 158.89173,80.882439 0.0334,0.668176 -0.63476,0.367495 -0.63477,-0.434313 0.16704,-0.701582 z"
       style="fill:none;stroke:#000000;stroke-width:0.264583px;stroke-linecap:butt;stroke-linejoin:miter;stroke-opacity:1" />
    <path
       id="path158"
       d="m 157.35493,85.125345 1.06908,0.200451 0.0334,0.334086 -0.83522,0.835218 -0.53454,-0.167044 -0.63476,-0.46772 0.23386,-0.7684 z"
       style="fill:none;stroke:#000000;stroke-width:0.264583px;stroke-linecap:butt;stroke-linejoin:miter;stroke-opacity:1" />
    <path
       id="path160"
       d="m 154.48178,82.118561 0.26727,0.367496 v 0.668174 l -0.63476,0.06682 -0.23386,-0.233859 -0.0668,-0.701583 z"
       style="fill:none;stroke:#000000;stroke-width:0.264583px;stroke-linecap:butt;stroke-linejoin:miter;stroke-opacity:1" />
    <path
       id="path162"
       d="m 150.84024,78.744283 0.36749,0.434313 0.33409,1.436574 -0.66817,0.668173 -0.80181,0.03341 -0.10023,-0.835215 0.53454,-0.968854 -0.4009,-0.634765 z"
       style="fill:none;stroke:#000000;stroke-width:0.264583px;stroke-linecap:butt;stroke-linejoin:miter;stroke-opacity:1" />
    <path
       id="path164"
       d="m 151.94272,93.577742 0.30068,0.267269 -0.30068,0.835218 -0.8018,0.100227 -0.13364,-0.601358 z"
       style="fill:none;stroke:#000000;stroke-width:0.264583px;stroke-linecap:butt;stroke-linejoin:miter;stroke-opacity:1" />
    <path
       id="path166"
       d="m 145.2944,83.254457 c 0.0668,0.23386 0.26726,0.501129 0.26726,0.501129 l -0.46772,0.835218 -1.00226,0.23386 -0.33408,-0.501129 -0.10023,-0.634764 0.83522,-0.567949 z"
       style="fill:none;stroke:#000000;stroke-width:0.264583px;stroke-linecap:butt;stroke-linejoin:miter;stroke-opacity:1" />
    <path
       id="path168"
       d="m 136.70836,77.708614 -0.60136,1.236122 v 1.169305 l 0.63477,0.23386 0.70158,-1.937705 2.60588,-1.536798 0.86863,0.100224 1.13589,-0.334087 0.10023,-0.634764 -0.7684,-0.267269 -2.17157,0.634765 -1.26953,0.567946 -0.30068,0.734992 -0.46772,-0.23386 z"
       style="fill:none;stroke:#000000;stroke-width:0.264583px;stroke-linecap:butt;stroke-linejoin:miter;stroke-opacity:1" />
    <path
       id="path170"
       d="m 138.7797,81.416979 1.50339,-0.300678 0.10023,0.400905 -1.16931,0.668173 -0.8018,1.035669 -1.36976,0.03341 -0.23386,-0.634764 0.0334,-0.53454 0.8018,0.100226 z"
       style="fill:none;stroke:#000000;stroke-width:0.264583px;stroke-linecap:butt;stroke-linejoin:miter;stroke-opacity:1" />
    <path
       id="path172"
       d="m 44.74293,206.94196 -0.283482,1.11031 -0.28348,0.42522 0.496094,1.01581 0.118115,1.41741 -1.133928,2.33873 -2.173364,1.58278 -2.126115,0.25985 -0.330729,0.35436 -0.755951,-0.11812 -1.795389,1.48828 -0.307104,0.99219 -0.826823,0.16536 -0.661459,-0.28348 -2.716704,2.66946 -0.377976,1.08668 -1.252045,0.8032 -0.779577,0.49609 -1.511905,0.0709 -0.708705,-0.11812 -3.378162,0.68509 -0.8032,0.56696 -2.598586,-0.0945 -0.732329,-0.70871 0.354353,-3.16555 -1.157552,-2.4096 -2.882069,-1.81901 -1.511904,0.14174 -1.960752,-0.77957 0.566965,-0.75596 1.653645,0.68509 2.055246,-0.14175 0.448847,-0.66145 0.425223,0.28348 1.181175,-0.47247 0.685082,-0.0709 0.07087,-0.75595 -1.110305,-0.21261 0.47247,-0.56697 1.866257,-0.14174 1.110305,-1.58278 1.866258,-2.07887 5.622394,-1.84263 1.417413,-0.0709 1.299292,-0.59059 0.826823,-1.53553 1.346541,-0.44884 0.944941,0.51971 1.299292,-1.46465 1.370163,-0.0945 0.165365,0.42523 -0.259858,0.8032 -1.535528,0.92131 0.09449,0.63784 h 0.637834 l 1.086684,-0.87407 0.212611,-1.03944 0.732329,0.18899 0.354352,-0.4016 3.165551,3.00019 0.259858,0.56696 0.543341,-0.42522 0.330729,0.44884 0.330729,-0.33072 z"
       style="fill:none;stroke:#000000;stroke-width:0.264583px;stroke-linecap:butt;stroke-linejoin:miter;stroke-opacity:1" />
    <path
       id="path174"
       d="m 26.552826,207.8869 5.409785,12.47322"
       style="fill:none;stroke:#000000;stroke-width:0.264583px;stroke-linecap:butt;stroke-linejoin:miter;stroke-opacity:1" />
    <path
       id="path176"
       d="m 19.253162,219.69866 0.448847,1.93713 -0.377977,1.32291 -0.685081,-0.16536 -0.354353,-0.89769 0.47247,-0.66146 0.02362,-1.53553 z"
       style="fill:none;stroke:#000000;stroke-width:0.264583px;stroke-linecap:butt;stroke-linejoin:miter;stroke-opacity:1" />
    <path
       id="path178"
       d="m 13.418155,220.50186 0.779575,0.33073 0.141742,0.75595 -0.283483,0.33073 -0.614211,-0.51972 -0.259858,0.14174 -0.354353,-0.3071 z"
       style="fill:none;stroke:#000000;stroke-width:0.264583px;stroke-linecap:butt;stroke-linejoin:miter;stroke-opacity:1" />
    <path
       id="path180"
       d="m 14.59933,223.38393 0.47247,0.18898 -0.07087,0.44885 -0.4016,0.28348 -0.283482,-0.28348 -0.04725,-0.37797 z"
       style="fill:none;stroke:#000000;stroke-width:0.264583px;stroke-linecap:butt;stroke-linejoin:miter;stroke-opacity:1" />
    <path
       id="path182"
       d="m 144.17429,91.588356 3.09468,0.14174 2.07887,-1.81901 1.01581,-0.18899 1.88988,0.850448 0.61421,0.377976 -0.14174,0.519718 -0.99219,0.283483 -0.51971,-0.0945 -1.41741,1.866257 -0.63784,0.04725 -1.27567,0.732327 -0.73232,-0.897692 -0.94495,-0.165364 -1.18117,0.566962 h -0.59059 l -0.89769,-1.748139 z"
       style="fill:none;stroke:#000000;stroke-width:0.264583px;stroke-linecap:butt;stroke-linejoin:miter;stroke-opacity:1" />
    <path
       id="path184"
       d="m 149.34784,89.911086 -0.18899,3.66164"
       style="fill:none;stroke:#000000;stroke-width:0.264583px;stroke-linecap:butt;stroke-linejoin:miter;stroke-opacity:1" />
    <path
       id="path186"
       d="m 152.89137,105.92783 2.008,0.3071 0.87407,0.63784 0.7087,-0.33073 0.66146,0.51972 0.47247,-0.11812 1.46466,2.7167 1.5119,-0.0472 1.67727,1.65364 1.01581,-0.75595 5.45703,5.33891 0.85045,-0.59059 0.54334,0.8977 1.55915,0.66146 1.58278,-0.63784 1.39378,1.55915 0.47248,-0.28348 -0.94494,-1.88988 1.03943,-0.59059 -0.0945,-2.03162 0.92131,-0.8032 0.99219,1.08668 h 1.08668 l 3.04743,4.53572 -0.37797,0.56696 1.46466,0.85045 1.1103,-0.11812 0.47247,0.47247 0.92132,-0.0236 0.37797,1.13393 -0.44884,0.42523 1.88988,1.65364 0.11812,0.61421 -0.99219,0.25986 0.54334,0.85045 0.4016,1.44103 0.89769,0.11812 0.33073,1.25204 -0.51971,0.56697 0.0472,0.28348 1.01581,0.18899 0.82682,0.0236 0.61422,1.15755 0.0472,3.49628 -1.1103,1.37016 h -1.18118 l -0.35435,-0.56696 -0.0709,-1.39379 0.4016,-1.08668 -0.23623,-0.75595 -0.94495,-0.30711 -0.73233,0.77958 -0.0945,0.73233 0.56697,0.66146 -0.16537,0.37797 -0.35435,0.11812 -0.23624,-0.49609 -0.47247,0.35435 -0.0945,0.35435 h -0.33073 l -0.0945,-1.1103 -0.49609,0.16536 v 1.08668 l 0.85045,1.06306 1.25204,0.59059 -0.28348,0.8032 -1.1103,0.0236 0.11811,0.35436 0.85045,0.37797 0.54334,1.18118 -0.51972,0.59059 -0.40159,-0.42523 -0.96857,0.51972 0.42523,1.01581 0.3071,0.4016 0.82682,0.23623 0.0472,0.4016 -0.54334,0.25986 0.51972,0.66146 -0.0709,0.56697 v 0.44884 l 0.96856,0.30711 0.54334,0.61421 -0.35435,0.30711 -1.65365,-0.66146 -1.25204,0.23623 -0.92132,0.70871 v 0.7087 l 0.54334,0.28349 2.69308,-0.14175 1.2048,-0.0236 2.29148,1.15755 0.63784,-0.14174 0.73232,0.25985 0.18899,0.66146 -0.16536,0.51972 -0.87407,0.0236 -0.82683,0.7087 0.0472,0.61421 0.18899,0.35436 0.0236,0.99218 -0.47247,0.35436 0.66145,1.27567 -0.0709,0.42522 -0.54334,0.68508 -1.13393,1.13393 -0.37797,0.94494 -1.44104,0.82682 -0.61421,-0.44884 -1.34654,0.82682 -0.21261,0.35435 h -0.37798 l -0.4016,-0.59059 -0.3071,0.16537 -0.0472,0.51972 -0.44885,0.44884 -0.44884,-0.23623 -0.0709,-0.47247 -0.94494,0.61421 0.35435,0.56696 0.14174,0.30711 -0.56696,0.61421 -0.82683,0.23623 -0.61421,-0.56696 -0.99219,0.21261 0.0945,0.70871 0.37798,0.37797 -0.82513,0.72282 0.99049,0.1985 0.68508,0.77958 -0.61421,0.77957 -0.0472,1.06306 0.33073,0.11812 0.94494,-0.54334 0.96857,-0.87407 2.03162,0.68508 1.01581,-0.0945 0.54334,0.61422 0.14174,0.75595 1.32292,0.37798 0.49609,0.63783 -0.28348,0.68508 0.0236,0.82683 0.96856,0.33072 0.11812,0.4961 1.34654,0.0945 0.3089,0.48552"
       style="fill:none;stroke:#000000;stroke-width:0.264583px;stroke-linecap:butt;stroke-linejoin:miter;stroke-opacity:1" />
    <path
       id="path188"
       d="m 188.61012,156.12779 0.77957,-0.21261 0.54334,0.54334 -0.0236,1.25204 -0.56697,0.25986 0.0236,0.85045 -0.61421,0.54334 -0.75596,-0.11812 -0.49609,-1.15755 0.33073,-1.48828 z"
       style="fill:none;stroke:#000000;stroke-width:0.264583px;stroke-linecap:butt;stroke-linejoin:miter;stroke-opacity:1" />
    <path
       id="path190"
       d="m 186.64937,161.37221 0.49609,0.14174 0.21261,0.89769 -0.11812,0.59059 -0.66146,0.0236 -0.44884,-0.18899 0.0945,-1.27567 0.56697,-0.23624 z"
       style="fill:none;stroke:#000000;stroke-width:0.264583px;stroke-linecap:butt;stroke-linejoin:miter;stroke-opacity:1" />
    <path
       id="path192"
       d="m 188.44475,162.29353 0.66146,0.18898 0.14174,0.4961 -0.56696,0.28348 -0.54334,-0.18899 -0.14174,-0.44885 z"
       style="fill:none;stroke:#000000;stroke-width:0.264583px;stroke-linecap:butt;stroke-linejoin:miter;stroke-opacity:1" />
    <path
       id="path194"
       d="m 187.87779,163.59282 0.85044,0.21261 -0.16536,0.37798 -0.70871,0.35435 -0.14174,-0.42522 z"
       style="fill:none;stroke:#000000;stroke-width:0.264583px;stroke-linecap:butt;stroke-linejoin:miter;stroke-opacity:1" />
    <path
       id="path196"
       d="m 189.95666,135.57533 0.33073,0.0945 0.49609,0.77957 -0.14174,0.63784 -0.44885,0.4016 h -0.42522 l -0.14174,-0.99219 -0.21261,-0.54334 z"
       style="fill:none;stroke:#000000;stroke-width:0.264583px;stroke-linecap:butt;stroke-linejoin:miter;stroke-opacity:1" />
    <path
       id="path198"
       d="m 55.558652,233.42652 1.135896,0.70158 0.400905,0.96885 -1.035669,1.40317 -1.035669,0.26727 -0.601359,-0.7684 v -1.57021 z"
       style="fill:none;stroke:#000000;stroke-width:0.264583px;stroke-linecap:butt;stroke-linejoin:miter;stroke-opacity:1" />
    <path
       id="path200"
       d="m 6.1806079,228.91635 0.534539,0.60135 0.066817,0.83522 -0.7684,0.33409 -0.6681737,-0.23386 -0.100226,-0.80181 0.5011303,-0.63477 z"
       style="fill:none;stroke:#000000;stroke-width:0.264583px;stroke-linecap:butt;stroke-linejoin:miter;stroke-opacity:1" />
    <path
       id="path202"
       d="m 42.896758,191.69907 -0.701583,-0.20046 -0.668173,0.26727 v 0.90204 l 0.200453,0.80181 -2.572469,4.54358 0.167042,2.37202 2.104747,4.37653 3.842001,1.46999 2.305199,0.7684 4.744034,0.60135 1.870887,0.43432 5.345391,1.83747 1.971111,1.1359 0.801809,-0.13363 0.100227,0.53453 2.706103,0.7684 1.135896,-0.66817 1.035669,0.56795 0.53454,0.86862 2.57247,-0.4009 0.7684,-1.20271 0.567947,0.20045 0.701582,0.86863 -0.634764,0.83521 0.501128,0.26727 1.236123,-0.90203 0.668174,0.46772 2.505651,0.46772 0.80181,0.30068 1.336346,-1.16931 0.434314,1.06908 0.668173,0.53454 0.634765,-0.46772 0.601358,0.63476 2.869335,0.0511 3.812402,0.28298 1.770661,0.20045 1.369756,-0.4009 2.271791,0.0334 c 0,0 4.977895,-1.97111 5.14494,-1.97111 0.167042,0 1.080225,-0.0347 1.080225,-0.0347 l 0.991111,0.20176 1.83748,-0.33409 0.7684,-0.73499 0.80181,-0.10022 0.36749,0.33408 2.50565,-1.30294 1.87089,0.13364 0.8263,-0.65408 1.94662,0.0193 1.93771,0.7684 0.86862,-0.13363 1.33635,0.4009 0.96885,-0.16704 0.40091,0.33409 0.96885,-0.20046 0.46772,0.56795 1.70384,0.86863 0.83522,0.43431 4.74404,-0.43431 2.17156,-0.93545 2.73951,-0.30067 2.37202,-1.5368 2.73951,-1.00226 1.1359,-1.06908 3.40768,-0.30068 1.43658,-0.4009 2.40542,-0.33409 2.17157,-0.73499 0.50113,-1.93771 1.10249,-0.0334 0.53453,-0.36749 -0.90203,-1.5368 1.50339,-0.43431 0.13364,0.13363 h 0.50113 l 0.53453,-0.66817 3.40769,0.13363 0.40091,0.20045 1.13589,-0.86862 -0.0668,-1.93771 0.46771,-0.46772 -0.43431,-0.3675 -0.50113,-0.26726 0.13365,-2.13816 0.50111,-0.66817 -0.20045,-2.03793 0.36749,-0.83522 0.60136,-1.60362 0.26727,-1.5702 3.842,-1.93771 1.70386,-0.23386 0.73497,0.3675 1.60362,-0.10023 2.33861,-2.07134 0.36749,0.0668 0.93545,-1.93771 0.96885,-0.56794 0.70158,-0.90204 0.63477,-0.30068 0.90203,-1.90429 1.46998,-0.7684 0.63477,-0.0334 1.03567,-0.43431 0.50113,0.0334 0.50113,0.56794 0.0334,1.30294 0.80181,1.23612 -0.13364,1.26953 1.06908,2.40543 0.93544,1.06908 0.60136,0.56795 1.00226,0.0334 0.83522,0.10023 0.76839,-0.73499 1.97112,-0.30068 3.60814,-0.63476 3.94222,-0.46773 0.66818,-0.73499 0.16704,-1.77066 1.03567,-1.46998 0.7684,-0.0668 0.70158,-0.26727 1.33635,-1.46998 0.23386,-2.40542 -0.53454,-2.47225 0.20046,-1.90429 -0.50113,-1.97112 1.03566,-0.8018 -0.30067,-0.70159 -0.80181,-0.16704 -0.13364,-0.53454 -0.83521,-0.13363 -1.03567,0.70158 -1.57021,-0.10023 -1.33635,-0.90205"
       style="fill:none;stroke:#000000;stroke-width:0.264583px;stroke-linecap:butt;stroke-linejoin:miter;stroke-opacity:1" />
    <path
       id="path204"
       d="m 204.69505,101.59583 0.7684,0.0334 0.23386,0.83521 -0.53454,0.63477 -0.80181,-0.30068 -0.4009,-0.53454 0.20045,-0.36749 z"
       style="fill:none;stroke:#000000;stroke-width:0.264583px;stroke-linecap:butt;stroke-linejoin:miter;stroke-opacity:1" />
    <path
       id="path206"
       d="m 116.03869,95.249999 2.12785,-0.703406 0.86862,1.03567 0.56795,-0.701583 1.33635,-0.400902 1.30294,0.133633 2.13815,0.80181 1.20272,0.133635 1.20271,0.567947 2.57247,-0.200451 1.5368,-1.369759 -0.16704,-1.469982 -1.00227,-1.23612 0.90204,-0.03341 1.73725,0.267269 1.40317,1.937705 h 1.43657 l 0.86863,-0.534541 1.1693,0.968854 0.86863,1.102487 1.20271,1.069078 0.26727,0.701583 1.50339,1.169302 0.80181,0.567949 0.43431,1.002263 -0.26727,1.30294 -0.16704,0.60135 0.56795,0.10023 0.13686,0.93496 0.76517,-1.00178 1.67044,-0.36749 0.0668,-0.70158 1.43658,-0.968859 -0.23386,-0.80181 0.20045,-1.269529 1.03567,-1.77066 0.90203,0.167045 0.96885,0.968851 1.20272,2.739511 1.1693,0.567951 0.73499,0.33409 0.30068,1.30293 -0.0334,2.13816 0.11343,1.59249"
       style="fill:none;stroke:#000000;stroke-width:0.264583px;stroke-linecap:butt;stroke-linejoin:miter;stroke-opacity:1" />
    <path
       id="path208"
       d="m 88.466212,116.06179 0.902036,-0.10022 0.968851,-0.0668 0.601356,-0.70158 1.069078,0.20045 -0.06681,-0.60136 0.501128,-0.46772 -1.302938,-0.13363 -0.467722,-0.60136 1.236123,-1.83748 0.7684,0.10023 0.968851,-1.5034 1.503392,-0.43431 0.300677,0.70159 0.467723,-0.0668 0.167042,-1.67044 1.481709,-1.3447 0.422587,-1.06072 0.868625,-0.0334 -0.167042,-0.63477 0.467719,-0.63476 0.668176,0.26727 -0.567949,-2.17157 -0.100227,-0.93544 -0.167042,-0.26727 0.200451,-0.70158 0.501132,0.23386 0.06682,-0.56795 2.004522,-0.73499 0.53454,-0.400906 -0.53454,-0.334087 -0.86862,0.400905 0.0668,-1.002261 1.26953,-2.171565 0.86863,-0.434313 2.17156,-0.100224 0.40091,0.534537 -0.13364,1.069078 h 0.23386 l 0.50114,-0.467722 0.70158,0.334087 -0.0334,0.668176 0.63476,0.23386 -0.16704,-0.634765 1.63703,-0.100227 0.90203,-0.902033 1.00226,-0.267272 0.16704,1.33635 1.5034,-1.035672 0.63476,0.534541 -0.33409,-1.135896 1.20272,-1.837479 0.86862,0.434314 1.04598,0.235683"
       style="fill:none;stroke:#000000;stroke-width:0.264583px;stroke-linecap:butt;stroke-linejoin:miter;stroke-opacity:1" />
    <path
       id="path210"
       d="m 71.561414,136.17382 2.706105,0.0668 2.605879,-0.63476 0.634765,-0.83522 0.668173,-1.33635 0.668173,-0.33409 1.664415,-1.94248 -0.294659,-1.19793 0.434314,-0.70158 0.434313,-0.0668 -0.133635,-1.60362 0.53454,-0.26727 -0.167045,-1.60362 1.269532,-2.00452 v -1.03567 l 0.701582,-1.36975 1.035669,-0.23387 -0.801809,-0.26727 -0.133636,-2.80632 0.634768,-1.06908 v -0.70159 l 0.133633,-2.00452 0.935445,-0.16704 1.436573,-1.06908 0.400905,0.46772 -0.267272,0.53454 h 0.400905 l 0.367496,-1.06908 0.634764,-0.10022 0.434314,0.93544 -0.23386,0.80181 -0.06682,0.63477 0.601356,-0.23387 0.200453,0.3675 -0.53454,0.73499"
       style="fill:none;stroke:#000000;stroke-width:0.264583px;stroke-linecap:butt;stroke-linejoin:miter;stroke-opacity:1" />
    <path
       id="path212"
       d="m 71.561415,136.17372 -0.534538,-0.50113 -0.367495,-0.0334 -0.902036,0.40091 h -1.23612 l -0.80181,0.43431 -0.634764,-0.10022 -2.00452,1.46998 h -0.902036 l -0.601356,-0.10023 -0.701582,0.40091 0.367495,0.8018 -1.870887,1.83748 -0.835218,0.10023 -0.400905,-0.16704 -0.701582,0.56794 -1.069078,0.30068 -1.336347,0.80181 -0.801809,-0.0334 -0.367496,-0.0668 -0.46772,0.56795 -2.191461,0.0195 -1.984627,1.75122 0.167045,1.1693 -0.501132,0.86863 -0.7684,-0.10023 -0.902033,0.50114 -0.06682,0.60135 -0.501131,-0.0334 0.03341,-0.46772 c 0,0 -0.534537,-0.53454 -0.534537,-0.73499 0,-0.20045 -0.03341,-0.73499 -0.03341,-0.73499 l -0.668174,-0.16704 -0.434313,0.4009 -1.703843,0.23386 -0.634767,-0.23386 -0.835215,1.10249 0.267269,1.26953 0.167044,0.93544 0.902034,0.46772 0.167044,0.43431 -0.334086,0.7684 -0.300681,-0.26726 -0.501129,-0.0334 0.23386,0.93544 -1.369756,0.0668 -0.434313,0.36749 -1.503392,-0.23386 -0.267269,1.1359 -0.7684,-0.3675 -0.200451,0.3675 0.364488,0.95814 -0.897694,0.56696 -0.519717,-1.22842 h -0.755953 l -0.04725,1.37017 -0.04725,0.85044 -3.779762,4.8192 -0.94494,0.99219 -0.944941,0.99218 -0.850446,-0.14174 -0.897694,0.47247 0.425224,1.18118 -1.842634,1.65364 0.141741,1.88988 -0.755953,0.8977 v 0.56696 l -0.236235,0.66146 -0.519717,0.47247 v 1.22842 l -1.322917,0.94494 0.519718,1.6064 -0.661459,5.29167 0.661459,2.69308 v 1.18118 l 1.370164,1.22842 1.559151,0.51972 4.204985,-0.56697 1.464658,-0.47247 1.74814,-0.94494 0.850446,0.18899 0.614212,0.61421 v 0.99219 l 0.850446,0.7087 0.377976,0.75596 h 1.133929 l 0.04725,0.42522 -0.519717,0.0945 -0.755953,0.51972 0.04725,0.47247 0.47247,0.33073 1.27567,-0.47247 -0.09449,0.37797 -0.04725,0.47248 1.41741,0.33067 v 0 l -0.188987,1.51196 0.09095,1.81328 v 0"
       style="fill:none;stroke:#000000;stroke-width:0.264583px;stroke-linecap:butt;stroke-linejoin:miter;stroke-opacity:1" />
    <path
       id="path214"
       d="m 22.784727,151.0741 1.737252,0.63476 1.369756,-0.66817 0.968852,0.56795 1.202714,0.86862 -2.539061,2.63929 -2.104748,2.73951 h -1.102487 l -0.06682,-0.73499 -0.734991,-1.23612 -0.03341,-1.63703 -0.334087,-1.97111 0.26727,-0.70158 z"
       style="fill:none;stroke:#000000;stroke-width:0.264583px;stroke-linecap:butt;stroke-linejoin:miter;stroke-opacity:1" />
    <path
       id="path216"
       d="m 28.831701,157.38834 1.670434,0.26727 0.634764,0.86863 1.670436,0.46772 0.434311,0.56795 -0.7684,0.70158 -0.935442,1.10249 -1.069078,0.13363 -0.567947,0.60136 -0.902036,0.0334 -1.637025,-1.03567 -0.634767,-1.5368 v -1.40317 l 0.902036,-0.86863 1.336347,0.20046 z"
       style="fill:none;stroke:#000000;stroke-width:0.264583px;stroke-linecap:butt;stroke-linejoin:miter;stroke-opacity:1" />
    <path
       id="path218"
       d="m 31.771664,147.90027 0.434313,-0.23386 0.868627,0.23386 1.403165,-0.26727 0.334087,-0.26727 3.708365,1.9043 1.770661,-0.46772 0.868624,-0.70158 1.336347,-0.23386 0.267272,0.26726 -0.334087,0.53454 -0.567949,0.63477 -1.536798,0.46772 -0.935445,0.26727 -0.7684,0.90203 -0.868625,0.43432 0.100224,0.80181 -0.300678,0.50113 -0.467719,0.0668 -0.734992,-0.90203 c 0,0 -0.53454,0.3675 -0.734991,0.3675 -0.200454,0 -1.035669,-0.10023 -1.035669,-0.10023 l -0.567949,-0.56795 -0.133634,-0.66817 0.06682,-0.46772 -0.634765,-0.7684 -0.434313,-0.80181 -1.135896,-0.46773 z"
       style="fill:none;stroke:#000000;stroke-width:0.264583px;stroke-linecap:butt;stroke-linejoin:miter;stroke-opacity:1" />
    <path
       id="path220"
       d="m 43.665158,143.08942 0.935445,0.10023 0.567947,1.70384 -1.503392,0.93544 -0.167042,-0.56794 v -0.66818 l -0.367496,-0.90203 z"
       style="fill:none;stroke:#000000;stroke-width:0.264583px;stroke-linecap:butt;stroke-linejoin:miter;stroke-opacity:1" />
    <path
       id="path222"
       d="m 47.507159,143.3901 h 1.269529 l 0.467723,0.73499 -0.233863,0.63477 -0.334087,0.50113 -0.567946,0.43432 -1.202714,-1.03568 -0.434313,-0.66817 z"
       style="fill:none;stroke:#000000;stroke-width:0.264583px;stroke-linecap:butt;stroke-linejoin:miter;stroke-opacity:1" />
    <path
       id="path224"
       d="m 117.83245,88.031903 0.90204,-0.100227 0.0668,-0.53454 -0.8018,-0.434314 0.10022,-0.46772 0.50113,-0.03341 2.20497,-0.501132 0.63477,0.501132 0.7684,-0.80181 h 0.80181 l 1.06908,-0.835218 1.00226,-0.367495 0.7684,0.53454 0.60135,0.53454 -0.50113,0.601356 -1.90429,1.035669 0.23386,0.835218 -1.50339,0.902033 -1.10249,0.267269 -1.00226,-0.200451 -0.0334,0.935443 -0.20045,1.236122 -0.83522,-0.167044 -1.03567,0.200453 -2.57247,0.902034 -2.20497,-0.367496 -0.13363,-0.734991 1.13589,-0.501129 0.80181,-0.233863 0.7684,0.200454 1.00226,-0.701582 h 0.66817 l -0.43431,-0.935445 0.33409,-0.367496 -0.26727,-1.069078 -1.03567,-0.734991 -0.83522,0.7684 -1.60361,-0.334087 -0.7684,0.300678 -0.7684,0.434315 -0.43432,1.035669 -0.46772,0.501131 0.7684,0.7684 -0.20045,0.902034 0.53454,0.06682 1.13589,-0.868626 0.3675,-0.935444 0.4009,0.200453 0.96886,-0.467722 h 0.7684 l 0.36749,-0.367496 0.80181,0.26727"
       style="fill:none;stroke:#000000;stroke-width:0.264583px;stroke-linecap:butt;stroke-linejoin:miter;stroke-opacity:1" />
    <path
       id="path226"
       d="m 110.08164,91.406177 0.90203,0.601356 0.13363,0.7684 -1.13589,0.868627 -0.33409,0.23386 -0.50113,1.536801 -0.83522,0.835218 -0.36749,-0.835218 -0.53454,0.501131 -0.13363,0.434311 h -0.3675 v -0.7684 l -0.66817,-0.501129 h -1.33635 l -0.63477,-0.434314 -0.13363,-0.902033 h 0.63476 l 0.93545,0.06681 -0.20045,-0.601355 v -0.434314 l 0.60135,-0.734991 h 1.1359 l 0.20045,-0.400905 0.53454,0.367496 v 0.267271 l 1.26953,-0.801809 0.43431,-0.367496 z"
       style="fill:none;stroke:#000000;stroke-width:0.264583px;stroke-linecap:butt;stroke-linejoin:miter;stroke-opacity:1" />
    <path
       id="path228"
       d="m 101.59583,87.664405 0.70158,0.868625 h 0.80181 l 0.90203,0.06682 2.03793,-0.668174 0.63477,-0.300678 0.66817,0.03341 0.50113,-1.035671 -0.53454,-0.835216 -0.10022,-0.902036 0.0334,-0.801806 h -1.40317 l -1.06908,0.902033 -1.1693,0.734991 0.0668,0.668174 -0.56795,-0.23386 -0.23386,-0.300678 -0.23386,0.133633 -0.13364,0.53454 0.20046,0.734992 -0.46773,-0.06682 -0.53454,-0.801809 -0.70158,0.267268 v 0.634768 z"
       style="fill:none;stroke:#000000;stroke-width:0.264583px;stroke-linecap:butt;stroke-linejoin:miter;stroke-opacity:1" />
    <path
       id="path230"
       d="m 108.67847,85.459431 0.73499,0.567947 -0.0334,0.300678 0.63477,0.233862 0.0334,0.23386 -0.46773,0.434314 -0.56794,0.434313 -0.7684,-0.267271 -0.40091,-0.768398 -0.53454,-0.835215 z"
       style="fill:none;stroke:#000000;stroke-width:0.264583px;stroke-linecap:butt;stroke-linejoin:miter;stroke-opacity:1" />
    <path
       id="path232"
       d="m 79.078369,93.310473 0.668176,0.334087 0.23386,0.902033 1.035669,1.169305 -0.06682,0.534541 -0.434314,0.267268 -0.534538,-0.06682 -0.367495,-0.701583 -0.567947,-0.868627 -0.167045,-1.202711 z"
       style="fill:none;stroke:#000000;stroke-width:0.264583px;stroke-linecap:butt;stroke-linejoin:miter;stroke-opacity:1" />
    <path
       id="path234"
       d="m 127.87407,87.548735 0.37797,0.07087 0.61422,-0.165365 h 0.92131 l 0.75596,0.685081 -0.4016,0.685083 -0.37798,0.448847 -1.2048,-0.07087 -1.13393,-0.33073 -0.47247,-0.614211 -0.16536,-0.566965 0.47247,-0.09449 z"
       style="fill:none;stroke:#000000;stroke-width:0.264583px;stroke-linecap:butt;stroke-linejoin:miter;stroke-opacity:1" />
    <path
       id="path236"
       d="m 133.47284,89.249627 0.28348,0.09449 0.21262,0.566965 0.16536,0.637833 -0.56696,0.472472 h -0.68509 l -0.54334,-0.354354 v -0.661458 l 0.63784,-0.543341 0.4016,-0.236235 z"
       style="fill:none;stroke:#000000;stroke-width:0.264583px;stroke-linecap:butt;stroke-linejoin:miter;stroke-opacity:1" />
    <path
       id="path238"
       d="m 131.37035,88.65904 0.14174,0.14174 -0.16537,0.543341 -0.47246,0.09449 -0.0709,-0.330729 v -0.425225 z"
       style="fill:none;stroke:#000000;stroke-width:0.264583px;stroke-linecap:butt;stroke-linejoin:miter;stroke-opacity:1" />
    <path
       id="path240"
       d="m 128.96075,93.714471 0.35435,0.307104 0.0709,0.614212 -0.35435,0.141743 h -0.49609 l -0.0945,-0.519719 0.0945,-0.354351 z"
       style="fill:none;stroke:#000000;stroke-width:0.264583px;stroke-linecap:butt;stroke-linejoin:miter;stroke-opacity:1" />
    <path
       id="path242"
       d="m 69.264135,132.57515 0.661458,0.18899 0.543343,0.73232 -0.07087,0.73233 -0.188989,0.56697 h -0.992188 l -0.661458,-0.0945 -0.212611,-0.68508 -0.07087,-0.68508 0.566965,-0.51972 z"
       style="fill:none;stroke:#000000;stroke-width:0.264583px;stroke-linecap:butt;stroke-linejoin:miter;stroke-opacity:1" />
    <path
       id="path244"
       d="m 70.161829,131.03962 0.73233,0.21261 0.07087,0.35435 -0.118118,0.59059 -0.425225,0.18899 -0.519716,-0.30711 -0.519718,-0.16536 0.236236,-0.44885 0.02363,-0.37797 z"
       style="fill:none;stroke:#000000;stroke-width:0.264583px;stroke-linecap:butt;stroke-linejoin:miter;stroke-opacity:1" />
    <path
       id="path246"
       d="m 71.413874,130.28367 0.661461,0.42522 c 0,0 0.448845,0 0.448845,-0.11812 0,-0.11812 0.141742,-0.47247 0.141742,-0.47247 l 0.47247,-0.18899 -0.259858,-0.66145 -0.118118,-0.30711 -0.590587,0.0709 -0.307107,0.54334 -0.401598,0.23624 z"
       style="fill:none;stroke:#000000;stroke-width:0.264583px;stroke-linecap:butt;stroke-linejoin:miter;stroke-opacity:1" />
    <path
       id="path248"
       d="m 73.610863,128.39379 0.377976,0.42522 0.826823,-0.28348 0.14174,-0.59059 -0.14174,-0.30711 -0.519718,-0.0709 -0.472469,0.11812 -0.259858,0.44885 z"
       style="fill:none;stroke:#000000;stroke-width:0.264583px;stroke-linecap:butt;stroke-linejoin:miter;stroke-opacity:1" />
    <path
       id="path250"
       d="m 74.93378,119.20424 0.448847,-0.0709 0.330729,0.44885 -0.141742,0.42522 -0.519716,0.16536 -0.259861,-0.37797 -0.236233,-0.33073 z"
       style="fill:none;stroke:#000000;stroke-width:0.264583px;stroke-linecap:butt;stroke-linejoin:miter;stroke-opacity:1" />
    <path
       id="path252"
       d="m 68.484561,124.49591 0.708705,0.49609 0.992188,1.53553 -0.307107,0.49609 -0.566963,-0.11811 -0.732329,-0.85045 -0.543341,-1.34654 0.354351,-0.30711 z"
       style="fill:none;stroke:#000000;stroke-width:0.264583px;stroke-linecap:butt;stroke-linejoin:miter;stroke-opacity:1" />
    <path
       id="path254"
       d="m 65.200892,123.33836 0.07087,0.42522 -0.590587,0.3071 -0.826823,0.11812 -2.173364,1.18118 -0.330729,0.14174 -0.14174,-0.56697 0.614209,-0.35435 2.007999,-1.13393 0.401601,0.14174 0.496094,-0.33073 z"
       style="fill:none;stroke:#000000;stroke-width:0.264583px;stroke-linecap:butt;stroke-linejoin:miter;stroke-opacity:1" />
    <path
       id="path256"
       d="m 59.247767,128.5119 0.448847,0.0709 0.236236,0.77958 -0.543341,0.21261 -0.472471,-0.0236 -0.188987,-0.47247 0.236233,-0.44884 z"
       style="fill:none;stroke:#000000;stroke-width:0.264583px;stroke-linecap:butt;stroke-linejoin:miter;stroke-opacity:1" />
    <path
       id="path258"
       d="m 63.31101,135.66983 0.330729,0.0472 0.188989,0.42523 -0.118118,0.28348 -0.448847,0.0472 -0.07087,-0.25986 -0.18899,-0.33073 z"
       style="fill:none;stroke:#000000;stroke-width:0.264583px;stroke-linecap:butt;stroke-linejoin:miter;stroke-opacity:1" />
    <path
       id="path260"
       d="m 52.751301,139.33147 c 0,0 0.708705,0.0709 0.708705,0.21261 0,0.14174 0,0.56697 0,0.56697 l -0.165364,0.28348 -0.496094,0.0945 -0.73233,-0.44884 0.02363,-0.33073 0.236236,-0.28348 h 0.519715 z"
       style="fill:none;stroke:#000000;stroke-width:0.264583px;stroke-linecap:butt;stroke-linejoin:miter;stroke-opacity:1" />
    <path
       id="path262"
       d="m 54.121465,137.60696 0.519718,0.0236 0.708705,0.47248 -0.09449,0.47246 -0.259861,0.4016 -0.330729,0.18899 -0.236233,-0.28348 -0.377979,-0.28348 0.02363,-0.54334 -0.330729,-0.18899 z"
       style="fill:none;stroke:#000000;stroke-width:0.264583px;stroke-linecap:butt;stroke-linejoin:miter;stroke-opacity:1" />
    <path
       id="path264"
       d="m 54.215958,133.96894 0.354354,0.0472 0.07087,0.54334 -0.307107,0.25986 -0.283483,-0.0472 -0.14174,-0.4016 0.02363,-0.23623 z"
       style="fill:none;stroke:#000000;stroke-width:0.264583px;stroke-linecap:butt;stroke-linejoin:miter;stroke-opacity:1" />
    <path
       id="path266"
       d="m 46.939916,130.42541 0.472472,0.23623 0.07087,0.44885 -0.4016,0.28348 -0.09449,0.23624 -0.73233,-0.25986 -0.02363,-0.25986 0.212611,-0.30711 0.0945,-0.25985 z"
       style="fill:none;stroke:#000000;stroke-width:0.264583px;stroke-linecap:butt;stroke-linejoin:miter;stroke-opacity:1" />
    <path
       id="path268"
       d="m 49.940104,136.73289 c 0.165364,0.0472 0.708705,0.21261 0.708705,0.21261 l 0.519718,0.3071 h 0.236233 l -0.212611,0.54334 -0.307105,0.4016 -0.472471,-0.21261 -0.04725,-0.44885 -0.212611,0.18899 -0.354351,0.0709 -0.04725,0.4961 -0.448844,0.0236 0.02363,-0.89769 -0.566965,0.0472 -0.259858,-0.59059 0.637837,-0.21261 0.236233,-0.0709 0.188989,0.35435 0.330729,0.11812 z"
       style="fill:none;stroke:#000000;stroke-width:0.264583px;stroke-linecap:butt;stroke-linejoin:miter;stroke-opacity:1" />
    <path
       id="path270"
       d="m 43.963354,137.81957 0.874072,1.27567 0.590587,0.37797 -0.472472,0.37798 -0.425222,0.16536 -0.330729,-0.63783 -0.661458,-1.48828 z"
       style="fill:none;stroke:#000000;stroke-width:0.264583px;stroke-linecap:butt;stroke-linejoin:miter;stroke-opacity:1" />
    <path
       id="path272"
       d="m 40.301711,138.52827 0.283483,0.21261 0.14174,0.87407 1.67727,1.41742 0.07087,0.51971 -0.543341,0.21261 -1.08668,-0.47247 -0.897695,-1.74814 -0.04725,-0.89769 z"
       style="fill:none;stroke:#000000;stroke-width:0.264583px;stroke-linecap:butt;stroke-linejoin:miter;stroke-opacity:1" />
    <path
       id="path274"
       d="m 83.272878,110.58166 0.4016,0.42522 -0.165364,0.56697 -0.47247,0.49609 -0.755954,-0.14174 0.04725,-0.75595 0.354352,-0.4016 z"
       style="fill:none;stroke:#000000;stroke-width:0.264583px;stroke-linecap:butt;stroke-linejoin:miter;stroke-opacity:1" />
    <path
       id="path276"
       d="m 76.138579,112.99126 c 0,0 0.307104,0.35435 0.377975,0.47247 0.07087,0.11812 0.283483,0.73232 0.283483,0.73232 l -0.283483,0.21262 -0.425222,0.11811 -0.496094,-0.33073 -0.07087,-0.49609 v -0.4016 z"
       style="fill:none;stroke:#000000;stroke-width:0.264583px;stroke-linecap:butt;stroke-linejoin:miter;stroke-opacity:1" />
    <path
       id="path278"
       d="m 193.57831,97.394685 0.32573,0.133636 -0.0418,0.409254 -0.27562,0.34244 -0.30068,-0.08352 -0.11693,-0.451017 0.16704,-0.283974 z"
       style="fill:none;stroke:#000000;stroke-width:0.264583px;stroke-linecap:butt;stroke-linejoin:miter;stroke-opacity:1" />
    <path
       id="path280"
       d="m 132.7287,77.024459 0.27167,0.484283 -1.32292,1.157552 -0.51971,-0.09449 V 78.07571 l 0.61421,-0.791387 z"
       style="fill:none;stroke:#000000;stroke-width:0.264583px;stroke-linecap:butt;stroke-linejoin:miter;stroke-opacity:1" />
    <path
       id="path282"
       d="m 129.89388,80.190011 0.33073,0.153553 0.15355,0.67327 -0.31892,0.472469 -0.42522,0.236236 -0.36616,-0.153554 -0.21262,-0.496094 0.24805,-0.637833 z"
       style="fill:none;stroke:#000000;stroke-width:0.264583px;stroke-linecap:butt;stroke-linejoin:miter;stroke-opacity:1" />
    <path
       id="path284"
       d="m 112.40067,92.887648 0.56696,0.259858 0.18899,0.874069 -0.85044,0.18899 -0.18899,-0.330729 -0.18899,-0.448848 z"
       style="fill:none;stroke:#000000;stroke-width:0.264583px;stroke-linecap:butt;stroke-linejoin:miter;stroke-opacity:1" />
    <path
       id="path286"
       d="m 99.83296,90.572544 0.49609,0.283482 -0.25985,0.519716 -0.472475,0.188989 -0.803199,-0.425222 0.04725,-0.779576 0.779576,-0.07087 z"
       style="fill:none;stroke:#000000;stroke-width:0.264583px;stroke-linecap:butt;stroke-linejoin:miter;stroke-opacity:1" />
    <path
       id="path288"
       d="m 97.990325,90.123697 -0.04725,0.448847 -0.472469,0.188989 -0.141743,-0.425225 -0.590587,-0.07087 h -0.496094 l -0.09449,0.590587 c 0,0 0.566965,0.354352 0.68508,0.377976 0.118118,0.02363 0.59059,-0.14174 0.59059,-0.14174 l 0.09449,-0.377978 0.02363,-0.118115 -0.141743,-0.614212 0.519718,-0.141743 z"
       style="fill:none;stroke:#000000;stroke-width:0.264583px;stroke-linecap:butt;stroke-linejoin:miter;stroke-opacity:1" />
    <path
       id="path290"
       d="m 94.470423,92.698659 0.755954,0.212614 -0.141743,0.54334 -0.779576,0.165365 -0.519716,0.14174 -0.0945,-0.448848 0.236236,-0.401597 z"
       style="fill:none;stroke:#000000;stroke-width:0.264583px;stroke-linecap:butt;stroke-linejoin:miter;stroke-opacity:1" />
    <path
       id="path292"
       d="m 90.052825,89.53311 0.33073,0.212611 -0.472469,1.086681 -1.700893,0.850447 -0.73233,0.09449 -0.803198,-0.118118 -0.02363,-0.637834 0.425222,-0.02363 1.157552,-0.401598 0.992188,-0.165365 0.25986,-0.519718 z"
       style="fill:none;stroke:#000000;stroke-width:0.264583px;stroke-linecap:butt;stroke-linejoin:miter;stroke-opacity:1" />
    <path
       id="path294"
       d="m 91.682849,85.587982 0.259858,0.02363 -0.07087,0.566965 -0.236233,0.968563 -0.354354,0.283482 -0.330729,-0.141739 v -0.566965 l 0.259858,-0.448848 z"
       style="fill:none;stroke:#000000;stroke-width:0.264583px;stroke-linecap:butt;stroke-linejoin:miter;stroke-opacity:1" />
    <path
       id="path296"
       d="m 93.029388,82.87128 0.59059,0.54334 -0.33073,0.283483 -0.732329,1.039434 -0.496094,-0.118118 0.02363,-0.4016 0.47247,-0.755952 0.09449,-0.283483 z"
       style="fill:none;stroke:#000000;stroke-width:0.264583px;stroke-linecap:butt;stroke-linejoin:miter;stroke-opacity:1" />
    <path
       id="path298"
       d="m 50.648809,116.29855 0.496093,0.3071 -0.07087,0.68508 -0.472469,0.30711 -0.897694,-0.49609 0.283482,-0.56697 z"
       style="fill:none;stroke:#000000;stroke-width:0.264583px;stroke-linecap:butt;stroke-linejoin:miter;stroke-opacity:1" />
    <path
       id="path300"
       d="m 56.294829,113.18024 0.590587,-0.0709 0.188989,0.44885 -0.165364,0.49609 -0.543343,0.25986 -0.685081,-0.37797 0.165365,-0.54334 z"
       style="fill:none;stroke:#000000;stroke-width:0.264583px;stroke-linecap:butt;stroke-linejoin:miter;stroke-opacity:1" />
    <path
       id="path302"
       d="m 59.767485,112.04631 0.307105,0.25987 v 0.49609 l -0.425223,0.37797 -0.566965,-0.23623 0.07087,-0.63783 z"
       style="fill:none;stroke:#000000;stroke-width:0.264583px;stroke-linecap:butt;stroke-linejoin:miter;stroke-opacity:1" />
    <path
       id="path304"
       d="m 64.232329,109.14062 0.472469,0.0473 -0.118118,0.42523 -0.448847,0.44884 -0.307105,-0.25986 v -0.35435 z"
       style="fill:none;stroke:#000000;stroke-width:0.264583px;stroke-linecap:butt;stroke-linejoin:miter;stroke-opacity:1" />
    <path
       id="path306"
       d="m 67.268399,104.53579 0.467722,0.18375 -0.01669,0.55124 0.634764,0.25057 c 0,0 0.133636,0.28397 0.200454,0.28397 0.06682,0 0.718286,-0.0668 0.718286,-0.0668 l 0.250565,-0.58466 -0.517834,-0.46772 -0.35079,-0.31738 -0.835218,0.3842 -0.100227,0.10023 -0.35079,0.48442 -0.317383,-0.0167 -0.467723,-0.31739 0.233863,-0.35079 z"
       style="fill:none;stroke:#000000;stroke-width:0.264583px;stroke-linecap:butt;stroke-linejoin:miter;stroke-opacity:1" />
    <path
       id="path308"
       d="m 107.62872,68.130207 0.96856,0.236236 -0.0945,0.590587 -0.54334,0.377976 -0.94494,-0.118118 -0.21261,-0.496093 0.0945,-0.566963 z"
       style="fill:none;stroke:#000000;stroke-width:0.264583px;stroke-linecap:butt;stroke-linejoin:miter;stroke-opacity:1" />
    <path
       id="path310"
       d="m 106.06957,69.642113 c 0.11812,0.14174 0.44884,0.496094 0.44884,0.496094 l 0.11812,0.87407 -0.59059,0.14174 -0.35435,-0.33073 -0.33073,-0.661458 0.4961,-0.566965 z"
       style="fill:none;stroke:#000000;stroke-width:0.264583px;stroke-linecap:butt;stroke-linejoin:miter;stroke-opacity:1" />
    <path
       id="path312"
       d="m 93.974329,76.776412 0.519718,0.259861 c 0,0 0.259858,0.874069 0.283483,0.992187 0.02363,0.118116 -0.307107,0.354352 -0.307107,0.354352 l -0.307105,-0.09449 -0.307107,-0.685083 -0.236233,-0.519715 z"
       style="fill:none;stroke:#000000;stroke-width:0.264583px;stroke-linecap:butt;stroke-linejoin:miter;stroke-opacity:1" />
    <path
       transform="scale(0.26458333)"
       id="path1161"
       d="m 203.56592,689.0081 c -0.52126,-2.07689 -1.47438,-2.23675 -3.766,-0.63162 -1.99151,1.3949 -2.47217,0.93214 -3.67531,-3.53845 -0.51152,-1.90068 -1.50066,-3.81213 -2.19808,-4.24768 -0.97991,-0.61197 -1.10397,-1.09848 -0.54597,-2.14111 0.39714,-0.74207 0.61568,-1.43064 0.48563,-1.53017 -0.13004,-0.0995 -6.37198,-5.15467 -13.87098,-11.23365 l -13.63455,-11.05269 7.26368,-9.24089 c 3.99502,-5.08249 11.47556,-14.63101 16.62341,-21.21893 l 9.35974,-11.97804 1.91862,2.51544 c 1.56837,2.05624 1.75753,2.70955 1.03618,3.57873 -0.6954,0.83789 -0.70097,2.01094 -0.0263,5.53403 l 0.85619,4.47074 6.38962,3.92598 c 5.22142,3.2082 7.1789,4.94422 10.70669,9.49539 3.86675,4.98844 4.94026,5.87847 10.29108,8.53221 5.82143,2.88713 5.96385,3.0186 5.57633,5.14747 -0.21873,1.20157 -1.08231,3.23797 -1.91908,4.52533 -1.51135,2.32522 -2.27298,2.4881 -5.62303,1.20256 -0.56104,-0.21529 -1.71339,0.18513 -2.56079,0.88981 -1.47069,1.22302 -1.49756,1.46353 -0.59113,5.29163 l 0.94959,4.01038 -2.68674,1.6605 c -1.92247,1.18815 -2.80923,2.31342 -3.11735,3.95585 -0.24837,1.32393 -1.17816,2.78517 -2.19699,3.45273 -0.97151,0.63656 -1.76638,1.63211 -1.76638,2.21234 0,0.73552 -0.78046,1.05496 -2.57744,1.05496 -2.36268,0 -2.54165,0.14259 -2.14794,1.71125 0.44227,1.76214 -0.51012,2.57447 -3.01837,2.57447 -0.65908,0 -1.5998,0.64286 -2.09049,1.42857 -1.22728,1.96519 -2.90467,1.79124 -3.44388,-0.35714 z"
       style="fill:#d7eef4;fill-opacity:1;stroke:none;stroke-width:0.715411;stroke-linejoin:round" />
    <path
       id="path1311"
       d="m 116.36247,90.437326 1.26953,0.935442"
       style="fill:none;stroke:#000000;stroke-width:0.264583px;stroke-linecap:butt;stroke-linejoin:miter;stroke-opacity:1" />
    <path
       transform="scale(0.26458333)"
       id="path1353"
       d="m 239.43803,514.87349 c -0.003,-0.1784 -0.1223,-0.47848 -0.26483,-0.66686 -0.31983,-0.42268 -0.0595,-0.81822 0.53857,-0.81822 0.44039,0 0.88384,0.78581 0.77301,1.36981 -0.0874,0.46083 -1.03886,0.5656 -1.04675,0.11527 z"
       style="fill:#d7eef4;fill-opacity:1;stroke:none;stroke-width:0.178853;stroke-linejoin:round" />
  </g>
</svg>